<mxfile host="app.diagrams.net" agent="Mozilla/5.0 (Macintosh; Intel Mac OS X 10_15_7) AppleWebKit/605.1.15 (KHTML, like Gecko) Version/18.5 Safari/605.1.15" version="27.2.0">
  <diagram name="第 1 页" id="p1zU1C4yilF08BTNiGOx">
    <mxGraphModel dx="1763" dy="1189" grid="1" gridSize="10" guides="1" tooltips="1" connect="1" arrows="1" fold="1" page="1" pageScale="1" pageWidth="827" pageHeight="1169" math="0" shadow="0">
      <root>
        <mxCell id="0" />
        <mxCell id="1" parent="0" />
        <mxCell id="287ag0Wyf64thzpji-_u-1" value="前端人员" style="rounded=0;whiteSpace=wrap;html=1;" vertex="1" parent="1">
          <mxGeometry x="210" y="420" width="120" height="60" as="geometry" />
        </mxCell>
        <mxCell id="287ag0Wyf64thzpji-_u-11" style="edgeStyle=orthogonalEdgeStyle;rounded=0;orthogonalLoop=1;jettySize=auto;html=1;entryX=0;entryY=0.5;entryDx=0;entryDy=0;" edge="1" parent="1" source="287ag0Wyf64thzpji-_u-3" target="287ag0Wyf64thzpji-_u-7">
          <mxGeometry relative="1" as="geometry" />
        </mxCell>
        <mxCell id="287ag0Wyf64thzpji-_u-14" value="" style="edgeStyle=orthogonalEdgeStyle;rounded=0;orthogonalLoop=1;jettySize=auto;html=1;entryX=0.5;entryY=0;entryDx=0;entryDy=0;" edge="1" parent="1" source="287ag0Wyf64thzpji-_u-3" target="287ag0Wyf64thzpji-_u-13">
          <mxGeometry relative="1" as="geometry">
            <mxPoint x="270" y="420" as="targetPoint" />
            <Array as="points">
              <mxPoint x="260" y="390" />
              <mxPoint x="110" y="390" />
            </Array>
          </mxGeometry>
        </mxCell>
        <mxCell id="287ag0Wyf64thzpji-_u-3" value="组长" style="rounded=0;whiteSpace=wrap;html=1;" vertex="1" parent="1">
          <mxGeometry x="210" y="295" width="100" height="65" as="geometry" />
        </mxCell>
        <mxCell id="287ag0Wyf64thzpji-_u-6" style="edgeStyle=orthogonalEdgeStyle;rounded=0;orthogonalLoop=1;jettySize=auto;html=1;exitX=0.5;exitY=1;exitDx=0;exitDy=0;" edge="1" parent="1" source="287ag0Wyf64thzpji-_u-5">
          <mxGeometry relative="1" as="geometry">
            <mxPoint x="440" y="310" as="targetPoint" />
          </mxGeometry>
        </mxCell>
        <mxCell id="287ag0Wyf64thzpji-_u-5" value="项目经理" style="whiteSpace=wrap;html=1;" vertex="1" parent="1">
          <mxGeometry x="380" y="190" width="120" height="60" as="geometry" />
        </mxCell>
        <mxCell id="287ag0Wyf64thzpji-_u-10" style="edgeStyle=orthogonalEdgeStyle;rounded=0;orthogonalLoop=1;jettySize=auto;html=1;" edge="1" parent="1" source="287ag0Wyf64thzpji-_u-7" target="287ag0Wyf64thzpji-_u-8">
          <mxGeometry relative="1" as="geometry" />
        </mxCell>
        <mxCell id="287ag0Wyf64thzpji-_u-7" value="管理" style="whiteSpace=wrap;html=1;" vertex="1" parent="1">
          <mxGeometry x="380" y="310" width="120" height="50" as="geometry" />
        </mxCell>
        <mxCell id="287ag0Wyf64thzpji-_u-8" value="后端人员" style="rounded=0;whiteSpace=wrap;html=1;" vertex="1" parent="1">
          <mxGeometry x="380" y="420" width="120" height="60" as="geometry" />
        </mxCell>
        <mxCell id="287ag0Wyf64thzpji-_u-12" value="" style="endArrow=classic;html=1;rounded=0;exitX=0.25;exitY=1;exitDx=0;exitDy=0;entryX=0.6;entryY=-0.033;entryDx=0;entryDy=0;entryPerimeter=0;" edge="1" parent="1" source="287ag0Wyf64thzpji-_u-7" target="287ag0Wyf64thzpji-_u-1">
          <mxGeometry width="50" height="50" relative="1" as="geometry">
            <mxPoint x="520" y="400" as="sourcePoint" />
            <mxPoint x="570" y="350" as="targetPoint" />
          </mxGeometry>
        </mxCell>
        <mxCell id="287ag0Wyf64thzpji-_u-13" value="测试用例" style="whiteSpace=wrap;html=1;" vertex="1" parent="1">
          <mxGeometry x="50" y="420" width="120" height="60" as="geometry" />
        </mxCell>
        <mxCell id="287ag0Wyf64thzpji-_u-19" style="edgeStyle=orthogonalEdgeStyle;rounded=0;orthogonalLoop=1;jettySize=auto;html=1;exitX=0.5;exitY=1;exitDx=0;exitDy=0;entryX=0.5;entryY=0;entryDx=0;entryDy=0;" edge="1" parent="1" source="287ag0Wyf64thzpji-_u-17" target="287ag0Wyf64thzpji-_u-18">
          <mxGeometry relative="1" as="geometry" />
        </mxCell>
        <mxCell id="287ag0Wyf64thzpji-_u-17" value="登陆界面" style="rounded=1;whiteSpace=wrap;html=1;" vertex="1" parent="1">
          <mxGeometry x="280" y="630" width="120" height="60" as="geometry" />
        </mxCell>
        <mxCell id="287ag0Wyf64thzpji-_u-20" style="edgeStyle=orthogonalEdgeStyle;rounded=0;orthogonalLoop=1;jettySize=auto;html=1;exitX=1;exitY=0.5;exitDx=0;exitDy=0;" edge="1" parent="1" source="287ag0Wyf64thzpji-_u-18">
          <mxGeometry relative="1" as="geometry">
            <mxPoint x="500" y="790" as="targetPoint" />
          </mxGeometry>
        </mxCell>
        <mxCell id="287ag0Wyf64thzpji-_u-21" value="注册" style="edgeLabel;html=1;align=center;verticalAlign=middle;resizable=0;points=[];" vertex="1" connectable="0" parent="287ag0Wyf64thzpji-_u-20">
          <mxGeometry x="-0.1701" y="1" relative="1" as="geometry">
            <mxPoint as="offset" />
          </mxGeometry>
        </mxCell>
        <mxCell id="287ag0Wyf64thzpji-_u-25" style="edgeStyle=orthogonalEdgeStyle;rounded=0;orthogonalLoop=1;jettySize=auto;html=1;exitX=0.5;exitY=1;exitDx=0;exitDy=0;" edge="1" parent="1" source="287ag0Wyf64thzpji-_u-18">
          <mxGeometry relative="1" as="geometry">
            <mxPoint x="340" y="890" as="targetPoint" />
          </mxGeometry>
        </mxCell>
        <mxCell id="287ag0Wyf64thzpji-_u-18" value="注册/登陆" style="rhombus;whiteSpace=wrap;html=1;" vertex="1" parent="1">
          <mxGeometry x="300" y="750" width="80" height="80" as="geometry" />
        </mxCell>
        <mxCell id="287ag0Wyf64thzpji-_u-23" style="edgeStyle=orthogonalEdgeStyle;rounded=0;orthogonalLoop=1;jettySize=auto;html=1;exitX=0.5;exitY=0;exitDx=0;exitDy=0;entryX=1;entryY=0.5;entryDx=0;entryDy=0;" edge="1" parent="1" source="287ag0Wyf64thzpji-_u-22" target="287ag0Wyf64thzpji-_u-17">
          <mxGeometry relative="1" as="geometry" />
        </mxCell>
        <mxCell id="287ag0Wyf64thzpji-_u-24" value="注册成功" style="edgeLabel;html=1;align=center;verticalAlign=middle;resizable=0;points=[];" vertex="1" connectable="0" parent="287ag0Wyf64thzpji-_u-23">
          <mxGeometry x="0.2385" y="-2" relative="1" as="geometry">
            <mxPoint as="offset" />
          </mxGeometry>
        </mxCell>
        <mxCell id="287ag0Wyf64thzpji-_u-22" value="注册界面" style="rounded=1;whiteSpace=wrap;html=1;" vertex="1" parent="1">
          <mxGeometry x="500" y="760" width="120" height="60" as="geometry" />
        </mxCell>
        <mxCell id="287ag0Wyf64thzpji-_u-27" style="edgeStyle=orthogonalEdgeStyle;rounded=0;orthogonalLoop=1;jettySize=auto;html=1;entryX=0;entryY=0.5;entryDx=0;entryDy=0;exitX=0;exitY=0.5;exitDx=0;exitDy=0;" edge="1" parent="1" source="287ag0Wyf64thzpji-_u-26" target="287ag0Wyf64thzpji-_u-17">
          <mxGeometry relative="1" as="geometry">
            <mxPoint x="160" y="660" as="targetPoint" />
            <Array as="points">
              <mxPoint x="120" y="930" />
              <mxPoint x="120" y="660" />
            </Array>
          </mxGeometry>
        </mxCell>
        <mxCell id="287ag0Wyf64thzpji-_u-28" value="输入错误" style="edgeLabel;html=1;align=center;verticalAlign=middle;resizable=0;points=[];" vertex="1" connectable="0" parent="287ag0Wyf64thzpji-_u-27">
          <mxGeometry x="-0.0557" y="1" relative="1" as="geometry">
            <mxPoint as="offset" />
          </mxGeometry>
        </mxCell>
        <mxCell id="287ag0Wyf64thzpji-_u-29" style="edgeStyle=orthogonalEdgeStyle;rounded=0;orthogonalLoop=1;jettySize=auto;html=1;exitX=0.5;exitY=1;exitDx=0;exitDy=0;entryX=0.5;entryY=0;entryDx=0;entryDy=0;" edge="1" parent="1" source="287ag0Wyf64thzpji-_u-26" target="287ag0Wyf64thzpji-_u-33">
          <mxGeometry relative="1" as="geometry">
            <mxPoint x="340" y="1030" as="targetPoint" />
          </mxGeometry>
        </mxCell>
        <mxCell id="287ag0Wyf64thzpji-_u-32" value="输入错误" style="edgeLabel;html=1;align=center;verticalAlign=middle;resizable=0;points=[];" vertex="1" connectable="0" parent="287ag0Wyf64thzpji-_u-29">
          <mxGeometry x="-0.3058" y="-3" relative="1" as="geometry">
            <mxPoint as="offset" />
          </mxGeometry>
        </mxCell>
        <mxCell id="287ag0Wyf64thzpji-_u-26" value="验证账号密码" style="rhombus;whiteSpace=wrap;html=1;" vertex="1" parent="1">
          <mxGeometry x="300" y="890" width="80" height="80" as="geometry" />
        </mxCell>
        <mxCell id="287ag0Wyf64thzpji-_u-37" style="edgeStyle=orthogonalEdgeStyle;rounded=0;orthogonalLoop=1;jettySize=auto;html=1;exitX=0.5;exitY=1;exitDx=0;exitDy=0;entryX=0.5;entryY=0;entryDx=0;entryDy=0;" edge="1" parent="1" source="287ag0Wyf64thzpji-_u-33" target="287ag0Wyf64thzpji-_u-36">
          <mxGeometry relative="1" as="geometry" />
        </mxCell>
        <mxCell id="287ag0Wyf64thzpji-_u-33" value="用户界面" style="rounded=1;whiteSpace=wrap;html=1;" vertex="1" parent="1">
          <mxGeometry x="280" y="1040" width="120" height="60" as="geometry" />
        </mxCell>
        <mxCell id="287ag0Wyf64thzpji-_u-43" style="edgeStyle=orthogonalEdgeStyle;rounded=0;orthogonalLoop=1;jettySize=auto;html=1;exitX=0;exitY=0.5;exitDx=0;exitDy=0;entryX=0.5;entryY=0;entryDx=0;entryDy=0;" edge="1" parent="1" source="287ag0Wyf64thzpji-_u-36" target="287ag0Wyf64thzpji-_u-38">
          <mxGeometry relative="1" as="geometry" />
        </mxCell>
        <mxCell id="287ag0Wyf64thzpji-_u-45" style="edgeStyle=orthogonalEdgeStyle;rounded=0;orthogonalLoop=1;jettySize=auto;html=1;exitX=0.75;exitY=1;exitDx=0;exitDy=0;entryX=0.25;entryY=0;entryDx=0;entryDy=0;" edge="1" parent="1" source="287ag0Wyf64thzpji-_u-36" target="287ag0Wyf64thzpji-_u-41">
          <mxGeometry relative="1" as="geometry" />
        </mxCell>
        <mxCell id="287ag0Wyf64thzpji-_u-47" style="edgeStyle=orthogonalEdgeStyle;rounded=0;orthogonalLoop=1;jettySize=auto;html=1;exitX=0.25;exitY=1;exitDx=0;exitDy=0;entryX=0.5;entryY=0;entryDx=0;entryDy=0;" edge="1" parent="1" source="287ag0Wyf64thzpji-_u-36" target="287ag0Wyf64thzpji-_u-39">
          <mxGeometry relative="1" as="geometry" />
        </mxCell>
        <mxCell id="287ag0Wyf64thzpji-_u-36" value="文件处理" style="rounded=1;whiteSpace=wrap;html=1;" vertex="1" parent="1">
          <mxGeometry x="280" y="1180" width="120" height="60" as="geometry" />
        </mxCell>
        <mxCell id="287ag0Wyf64thzpji-_u-66" style="edgeStyle=orthogonalEdgeStyle;rounded=0;orthogonalLoop=1;jettySize=auto;html=1;exitX=0.75;exitY=1;exitDx=0;exitDy=0;entryX=0;entryY=0.5;entryDx=0;entryDy=0;" edge="1" parent="1" source="287ag0Wyf64thzpji-_u-38" target="287ag0Wyf64thzpji-_u-65">
          <mxGeometry relative="1" as="geometry" />
        </mxCell>
        <mxCell id="287ag0Wyf64thzpji-_u-38" value="上传" style="whiteSpace=wrap;html=1;aspect=fixed;" vertex="1" parent="1">
          <mxGeometry x="100" y="1280" width="80" height="80" as="geometry" />
        </mxCell>
        <mxCell id="287ag0Wyf64thzpji-_u-67" style="edgeStyle=orthogonalEdgeStyle;rounded=0;orthogonalLoop=1;jettySize=auto;html=1;exitX=0.5;exitY=1;exitDx=0;exitDy=0;entryX=0.25;entryY=0;entryDx=0;entryDy=0;" edge="1" parent="1" source="287ag0Wyf64thzpji-_u-39" target="287ag0Wyf64thzpji-_u-65">
          <mxGeometry relative="1" as="geometry" />
        </mxCell>
        <mxCell id="287ag0Wyf64thzpji-_u-39" value="删除" style="whiteSpace=wrap;html=1;aspect=fixed;" vertex="1" parent="1">
          <mxGeometry x="220" y="1280" width="80" height="80" as="geometry" />
        </mxCell>
        <mxCell id="287ag0Wyf64thzpji-_u-41" value="下载" style="whiteSpace=wrap;html=1;aspect=fixed;" vertex="1" parent="1">
          <mxGeometry x="350" y="1280" width="80" height="80" as="geometry" />
        </mxCell>
        <mxCell id="287ag0Wyf64thzpji-_u-69" style="edgeStyle=orthogonalEdgeStyle;rounded=0;orthogonalLoop=1;jettySize=auto;html=1;exitX=0.75;exitY=1;exitDx=0;exitDy=0;entryX=1;entryY=0.5;entryDx=0;entryDy=0;" edge="1" parent="1" source="287ag0Wyf64thzpji-_u-42" target="287ag0Wyf64thzpji-_u-65">
          <mxGeometry relative="1" as="geometry" />
        </mxCell>
        <mxCell id="287ag0Wyf64thzpji-_u-42" value="预览" style="whiteSpace=wrap;html=1;aspect=fixed;" vertex="1" parent="1">
          <mxGeometry x="490" y="1280" width="80" height="80" as="geometry" />
        </mxCell>
        <mxCell id="287ag0Wyf64thzpji-_u-46" style="edgeStyle=orthogonalEdgeStyle;rounded=0;orthogonalLoop=1;jettySize=auto;html=1;exitX=1;exitY=0.5;exitDx=0;exitDy=0;entryX=0.625;entryY=-0.012;entryDx=0;entryDy=0;entryPerimeter=0;" edge="1" parent="1" source="287ag0Wyf64thzpji-_u-36" target="287ag0Wyf64thzpji-_u-42">
          <mxGeometry relative="1" as="geometry" />
        </mxCell>
        <mxCell id="287ag0Wyf64thzpji-_u-55" style="edgeStyle=orthogonalEdgeStyle;rounded=0;orthogonalLoop=1;jettySize=auto;html=1;exitX=0.5;exitY=1;exitDx=0;exitDy=0;entryX=0;entryY=0.5;entryDx=0;entryDy=0;" edge="1" parent="1" source="287ag0Wyf64thzpji-_u-48" target="287ag0Wyf64thzpji-_u-51">
          <mxGeometry relative="1" as="geometry" />
        </mxCell>
        <mxCell id="287ag0Wyf64thzpji-_u-48" value="用户" style="whiteSpace=wrap;html=1;aspect=fixed;" vertex="1" parent="1">
          <mxGeometry x="70" y="1700" width="70" height="70" as="geometry" />
        </mxCell>
        <mxCell id="287ag0Wyf64thzpji-_u-54" style="edgeStyle=orthogonalEdgeStyle;rounded=0;orthogonalLoop=1;jettySize=auto;html=1;exitX=0.25;exitY=1;exitDx=0;exitDy=0;entryX=0.25;entryY=0;entryDx=0;entryDy=0;" edge="1" parent="1" source="287ag0Wyf64thzpji-_u-50" target="287ag0Wyf64thzpji-_u-51">
          <mxGeometry relative="1" as="geometry" />
        </mxCell>
        <mxCell id="287ag0Wyf64thzpji-_u-56" style="edgeStyle=orthogonalEdgeStyle;rounded=0;orthogonalLoop=1;jettySize=auto;html=1;exitX=1;exitY=0.5;exitDx=0;exitDy=0;" edge="1" parent="1" source="287ag0Wyf64thzpji-_u-50">
          <mxGeometry relative="1" as="geometry">
            <mxPoint x="370" y="1640" as="targetPoint" />
          </mxGeometry>
        </mxCell>
        <mxCell id="287ag0Wyf64thzpji-_u-50" value="登陆" style="whiteSpace=wrap;html=1;aspect=fixed;" vertex="1" parent="1">
          <mxGeometry x="200" y="1600" width="80" height="80" as="geometry" />
        </mxCell>
        <mxCell id="287ag0Wyf64thzpji-_u-53" style="edgeStyle=orthogonalEdgeStyle;rounded=0;orthogonalLoop=1;jettySize=auto;html=1;entryX=0.5;entryY=1;entryDx=0;entryDy=0;" edge="1" parent="1" source="287ag0Wyf64thzpji-_u-51" target="287ag0Wyf64thzpji-_u-50">
          <mxGeometry relative="1" as="geometry" />
        </mxCell>
        <mxCell id="287ag0Wyf64thzpji-_u-51" value="注册" style="whiteSpace=wrap;html=1;aspect=fixed;" vertex="1" parent="1">
          <mxGeometry x="200" y="1790" width="80" height="80" as="geometry" />
        </mxCell>
        <mxCell id="287ag0Wyf64thzpji-_u-52" style="edgeStyle=orthogonalEdgeStyle;rounded=0;orthogonalLoop=1;jettySize=auto;html=1;exitX=0.5;exitY=0;exitDx=0;exitDy=0;entryX=0.013;entryY=0.425;entryDx=0;entryDy=0;entryPerimeter=0;" edge="1" parent="1" source="287ag0Wyf64thzpji-_u-48" target="287ag0Wyf64thzpji-_u-50">
          <mxGeometry relative="1" as="geometry" />
        </mxCell>
        <mxCell id="287ag0Wyf64thzpji-_u-62" style="edgeStyle=orthogonalEdgeStyle;rounded=0;orthogonalLoop=1;jettySize=auto;html=1;exitX=0.5;exitY=0;exitDx=0;exitDy=0;entryX=0;entryY=0.25;entryDx=0;entryDy=0;" edge="1" parent="1" source="287ag0Wyf64thzpji-_u-57" target="287ag0Wyf64thzpji-_u-59">
          <mxGeometry relative="1" as="geometry" />
        </mxCell>
        <mxCell id="287ag0Wyf64thzpji-_u-63" style="edgeStyle=orthogonalEdgeStyle;rounded=0;orthogonalLoop=1;jettySize=auto;html=1;exitX=1;exitY=0.75;exitDx=0;exitDy=0;entryX=0;entryY=0.25;entryDx=0;entryDy=0;" edge="1" parent="1" source="287ag0Wyf64thzpji-_u-57" target="287ag0Wyf64thzpji-_u-60">
          <mxGeometry relative="1" as="geometry" />
        </mxCell>
        <mxCell id="287ag0Wyf64thzpji-_u-64" style="edgeStyle=orthogonalEdgeStyle;rounded=0;orthogonalLoop=1;jettySize=auto;html=1;exitX=0.5;exitY=1;exitDx=0;exitDy=0;entryX=0;entryY=0.75;entryDx=0;entryDy=0;" edge="1" parent="1" source="287ag0Wyf64thzpji-_u-57" target="287ag0Wyf64thzpji-_u-61">
          <mxGeometry relative="1" as="geometry" />
        </mxCell>
        <mxCell id="287ag0Wyf64thzpji-_u-57" value="文件" style="whiteSpace=wrap;html=1;aspect=fixed;" vertex="1" parent="1">
          <mxGeometry x="370" y="1600" width="80" height="80" as="geometry" />
        </mxCell>
        <mxCell id="287ag0Wyf64thzpji-_u-59" value="下载" style="whiteSpace=wrap;html=1;aspect=fixed;" vertex="1" parent="1">
          <mxGeometry x="560" y="1540" width="80" height="80" as="geometry" />
        </mxCell>
        <mxCell id="287ag0Wyf64thzpji-_u-60" value="删除" style="whiteSpace=wrap;html=1;aspect=fixed;" vertex="1" parent="1">
          <mxGeometry x="560" y="1640" width="80" height="80" as="geometry" />
        </mxCell>
        <mxCell id="287ag0Wyf64thzpji-_u-61" value="预览" style="whiteSpace=wrap;html=1;aspect=fixed;" vertex="1" parent="1">
          <mxGeometry x="560" y="1750" width="80" height="80" as="geometry" />
        </mxCell>
        <mxCell id="287ag0Wyf64thzpji-_u-65" value="数据库" style="rounded=0;whiteSpace=wrap;html=1;" vertex="1" parent="1">
          <mxGeometry x="230" y="1460" width="120" height="60" as="geometry" />
        </mxCell>
        <mxCell id="287ag0Wyf64thzpji-_u-68" style="edgeStyle=orthogonalEdgeStyle;rounded=0;orthogonalLoop=1;jettySize=auto;html=1;exitX=0.75;exitY=1;exitDx=0;exitDy=0;entryX=0.667;entryY=0;entryDx=0;entryDy=0;entryPerimeter=0;" edge="1" parent="1" source="287ag0Wyf64thzpji-_u-41" target="287ag0Wyf64thzpji-_u-65">
          <mxGeometry relative="1" as="geometry" />
        </mxCell>
      </root>
    </mxGraphModel>
  </diagram>
</mxfile>
